<svg xmlns="http://www.w3.org/2000/svg" xmlns:xlink="http://www.w3.org/1999/xlink" width="854" height="678" viewBox="0 0 854 678">
  <defs>
    <clipPath id="clip-画板_1">
      <rect width="854" height="678"/>
    </clipPath>
  </defs>
  <g id="画板_1" data-name="画板 – 1" clip-path="url(#clip-画板_1)">
    <g id="未命名_39" data-name="未命名 39" transform="translate(-209.781 -761.784)">
      <path id="路径_1" data-name="路径 1" d="M271.849,1036.452s-7.322,39.763,0,79.051,29.288,78.1,29.288,78.1,24.358,35.817,57.141,63.594,73.988,47.512,73.988,47.512,30.585,12,75.008,13.484,102.684-7.547,102.684-7.547l26.207-13.883,41.5,27.875,46.98,13.262-17.484-58.707s54.594-34.106,90.539-77.863,55.094-104.285,55.094-104.285l34.746-91.113L949.152,978.2l52.07-41.492-97.59-8.668-50.84-65.031s-18.7,16.8-18.7,50.957,18.7,85.664,18.7,85.664-12.166,33.106-32.012,57.461-47.371,39.957-47.371,39.957-110.457-49.3-163.453-66.9c-40.684-15.1-191.352-38.3-227.36-34.432C305.978,1003.943,271.849,1036.452,271.849,1036.452Z" fill="#2e6881"/>
      <path id="路径_2" data-name="路径 2" d="M278.292,1042.278s50.647,54.264,113.989,84.177,139.378,35.473,139.378,35.473L635.986,1298.5s-110.555,39.892-196.5,10.36S292.2,1180.376,292.2,1180.376s-10.434-19.4-13.913-53.921S278.292,1042.278,278.292,1042.278Z" fill="#fff"/>
      <g id="组_1" data-name="组 1">
        <g id="新建图层_3">
          <path id="STROKE_362a6bc6-e1d7-49d3-808c-b5300978c621" d="M275.175,1035.5q-.359,1.654-.848,4.558t-.763,5.007q-.274,2.1-.678,6.226t-.651,8.541q-.248,4.418-.317,7.837t-.069,5.321q0,1.9.3,10.179t.77,14.043q.475,5.766,1.526,13.622t1.615,11.069q.563,3.213.759,4.209t1.24,5.6q1.043,4.6,2.657,10.457t2.509,8.57q.893,2.715,2.511,7.031t3.981,9.841q2.363,5.526,3.069,7.025t3.362,6.68q2.656,5.181,5.742,10.478t6.781,10.893q3.7,5.6,7.646,10.977t7.256,9.481q3.305,4.1,7.049,8.416t5.338,6.082q1.594,1.766,3.477,3.761t4.868,5.063q2.983,3.068,6.542,6.466t6.357,5.9q2.8,2.505,7.13,6.111t8.238,6.578q3.906,2.972,7.859,5.711t6.764,4.557q2.811,1.818,6.58,4.04t4.4,2.582q.63.36,3.191,1.755t5.643,3q3.083,1.607,5.407,2.763t8.133,3.8q5.807,2.643,10.058,4.35t10.64,3.9q6.387,2.188,8.359,2.784t6.78,1.813q4.808,1.215,9.162,2.118t7.931,1.553l5.59.834" fill="none" stroke="#171612" stroke-linecap="round" stroke-linejoin="round" stroke-width="12.8"/>
          <path id="STROKE_f73f95a2-571c-40b8-a36e-d9fbe2520ffa" d="M469.972,1316.151q4.428.513,9.033.955t5.777.54q1.172.1,4.322.327t6.4.426q3.25.2,8.553.375t7.255.2q1.954.02,3.759.024t7.02-.108q5.214-.114,8.474-.274t4.922-.269q1.662-.109,4.388-.308t7.251-.628q4.525-.43,7.384-.756t7.159-.875q4.3-.55,9.228-1.3t8.328-1.338q3.4-.591,6.059-1.08t8.441-1.707q5.781-1.219,8.762-1.906t8.491-2.11q5.511-1.423,8.629-2.324t3.72-1.068q.6-.167,3.043-.924t3.461-1.1q1.019-.341,4.892-1.554" fill="none" stroke="#171612" stroke-linecap="round" stroke-linejoin="round" stroke-width="12.8"/>
          <path id="STROKE_fd1a9b2b-d1d7-406e-a177-15fd28501e69" d="M705.253,1278.265l.881-.476q2.9-1.793,5.449-3.415l5.082-3.241q2.536-1.619,4.94-3.194t7.49-4.976q5.086-3.4,10.678-7.377t10.656-7.766q5.064-3.787,6.644-5.008t7.706-6.34q6.126-5.118,9.586-8.267t5.293-4.894q1.833-1.747,4.682-4.6t8.382-8.963q5.534-6.11,6.634-7.4t3.2-3.865q2.1-2.574,4.218-5.3t3.913-5.156q1.794-2.426,4.506-6.233t6.641-9.906q3.93-6.1,6.113-9.846t3.4-5.968q1.217-2.222,1.633-2.991t4.177-8.332q3.762-7.562,5.846-12.139t4.678-10.535q2.594-5.96,6.685-15.874t5.556-13.591q1.466-3.675,2.515-6.41t3.086-8.327q2.036-5.591,4.256-12.04t3.388-9.982q1.169-3.534,1.568-4.754t1.8-5.728q1.4-4.508,3.886-12.906t2.921-9.908q.434-1.511,1.216-4.372t1.512-5.5q.73-2.639,1.516-5.586" fill="none" stroke="#171612" stroke-linecap="round" stroke-linejoin="round" stroke-width="12.8"/>
          <path id="STROKE_c99ae18b-dccb-4922-9cde-e29ac374ac9a" d="M276.691,1034.14q.784-.6,3.154-2.281t4.211-2.921q1.841-1.245,4.818-3.142t7.293-4.416q4.317-2.518,7.071-3.916t7.2-3.3q4.442-1.9,8.668-3.406t8.048-2.694q3.824-1.189,7.458-2.148t4.765-1.243q1.132-.284,3.5-.814t10.115-1.892q7.749-1.362,11.941-1.928t9.929-1.139q5.736-.573,11-.914t11.5-.538q6.24-.2,12.308-.206t9.1.065q3.035.074,6.622.237t8.737.439q5.15.276,9.231.556t8.6.7q4.518.425,11.157,1.293t11.713,1.624q5.074.756,7.925,1.205t8.352,1.371q5.5.922,10.3,1.744t10.734,1.849q5.933,1.027,10.554,1.858t9.586,1.78q4.965.949,8.845,1.779t7.12,1.562q3.239.732,9.652,2.325t11.175,2.9q4.762,1.307,10.625,3.032t8.913,2.656q3.051.931,6.782,2.1t10.115,3.235q6.385,2.069,15.414,5.176t13.6,4.718q4.571,1.61,9.738,3.438t9.825,3.471q4.658,1.644,10.172,3.649t14.455,5.469q8.942,3.462,14.55,5.76t9.4,3.931q3.8,1.633,8.648,3.765t12.972,5.9q8.121,3.765,13.024,6.276t8.612,4.531q3.708,2.02,4.755,2.593t6.84,3.919q5.794,3.347,8.345,4.88t9.586,5.929" fill="none" stroke="#171612" stroke-linecap="round" stroke-linejoin="round" stroke-width="12.8"/>
          <path id="STROKE_cf324c80-c1e7-4eb8-ac77-2dd9cd62019c" d="M771.675,1098.253q9.962-6.061,13.176-8.164t5.575-3.769q2.361-1.667,3.748-2.677t3.122-2.363q1.735-1.354,3.762-3.024t3.221-2.7q1.194-1.031,3.749-3.46t4.135-4.085q1.58-1.656,5.486-6.357t7.457-9.688q3.553-4.988,5.356-7.889t2.484-4.054q.679-1.154,1.945-3.42t2.576-4.8q1.31-2.528,2.835-5.794t3.528-7.906q2.005-4.64,3.543-8.493t2.112-5.426q.575-1.575,2.472-6.517" fill="none" stroke="#171612" stroke-linecap="round" stroke-linejoin="round" stroke-width="12.8"/>
          <path id="STROKE_05cfc7c2-5295-46d9-8211-ede82a268d10" d="M854.66,866.632q-1.21,1.713-2.483,3.666t-1.627,2.521q-.353.568-1.289,2.194t-2.46,4.6q-1.525,2.972-2.607,5.435t-1.628,3.836q-.547,1.374-1.22,3.284t-1.672,5.171q-1,3.26-1.834,6.953t-1.18,5.747q-.344,2.055-.9,7.7t-.631,9.826q-.078,4.185.111,8.223t.522,7.365q.333,3.327.568,4.9t.81,4.69q.574,3.113,1.575,7.37t1.051,4.439q.051.183,1.1,3.851t2.006,6.594q.958,2.928,1.715,5.01t1.35,3.6q.593,1.515,1.772,4.475t1.706,4.236q.528,1.276,2.009,4.621" fill="none" stroke="#171612" stroke-linecap="round" stroke-linejoin="round" stroke-width="12.8"/>
          <path id="STROKE_80404ab3-2efe-4540-bb60-7c1255c4ab22" d="M888.253,1007.362q8.316-3.352,10.939-4.405t4.61-1.855q1.987-.8,2.3-.917t3.923-1.617q3.606-1.5,5.548-2.352t7.05-3.308q5.106-2.458,8.554-4.37t5.883-3.374q2.435-1.463,5.362-3.271t5.141-3.277q2.215-1.468,4.035-2.625t9.184-5.918" fill="none" stroke="#171612" stroke-linecap="round" stroke-linejoin="round" stroke-width="12.8"/>
          <path id="STROKE_61b71953-5bc2-4bc6-8dd8-54c6f1e8975f" d="M957.191,972.194q3.6-2.514,6.168-4.329t7.186-5.062q4.618-3.248,8.3-5.845t4.126-2.91q.45-.314,3.414-2.434t4.7-3.378q1.739-1.258,5.463-3.906,1.308-.9,3.8-2.765l2.747-2.089" fill="none" stroke="#171612" stroke-linecap="round" stroke-linejoin="round" stroke-width="12.8"/>
          <path id="STROKE_51a0e9ca-3dbd-482f-adff-ab4126a1b948" d="M856.988,867.944a10.931,10.931,0,0,0,1.758.817q1.327.526,2.14.9t1.385.7q.57.33,1.464.935l1.3.877q.4.273,1.769,1.415t2.1,1.868q.735.725,1.972,2.138t2.877,3.546q1.64,2.132,3.515,5.022t3.806,6.372q1.932,3.483,2.956,5.475t2.151,4.392q1.127,2.4,2.141,4.683t2.561,5.7q1.546,3.418,2.876,6,.592.984,1.584,2.376a27.433,27.433,0,0,0,1.786,2.282q.108.212.537,1.313.3.139,1.793.978" fill="none" stroke="#171612" stroke-linecap="round" stroke-linejoin="round" stroke-width="12.8"/>
          <path id="STROKE_5b22d75e-17a0-4601-9806-d705dfe3ed8b" d="M899.128,927.007q1.173.22,3.163.51t2.8.395q.808.1,4.643.426t6.414.426q2.578.1,5.033.1t3.94-.053q1.483-.045,2.522-.059t3.675-.123q2.636-.11,6.7-.271t10.276-.238q6.213-.078,9.266-.007t4.064.1q1.011.03,2.618.122t4.952.407q3.345.316,4.926.487t4.765.645q3.182.473,4.934.775t4.883.862q3.131.56,4.884.88t2.618.465q.866.146,1.6.288t1.429.31a7.725,7.725,0,0,0,1.458.2,8.938,8.938,0,0,1,1.122.1,3.185,3.185,0,0,0,.574.068,2.656,2.656,0,0,1,.367.021,1.391,1.391,0,0,1,.334.1l.3.113a11.227,11.227,0,0,1,1,.952,4.818,4.818,0,0,1,.4.695,8.183,8.183,0,0,1,.4.928,2.885,2.885,0,0,0,.287.837" fill="none" stroke="#171612" stroke-linecap="round" stroke-linejoin="round" stroke-width="12.8"/>
          <path id="STROKE_710e80f2-902e-438a-8862-4d3fbaa5c1c4" d="M274.832,1037.038l.7,1.329,1.584,2.852q.17.343,1.89,3.092t3.277,5.019q1.556,2.269,3.121,4.347t4.735,5.839q3.171,3.761,6.709,7.292t7.105,6.626q3.567,3.1,7.869,6.423t7.317,5.58q3.017,2.251,7.391,5.459t10.557,7.505q6.184,4.3,10.442,7.075t6.5,4.165q2.241,1.388,3.518,2.158t5.919,3.269q4.64,2.5,8.139,4.133t8.751,3.71q5.253,2.076,13.424,5.139t14.254,5.276q6.082,2.214,12.071,4.262t10.2,3.359q4.211,1.312,6.162,1.862t5.236,1.424q3.284.875,8.552,2.256t9.826,2.559q4.559,1.178,10.332,2.638t10.531,2.551q4.758,1.091,6.989,1.575t9.241,1.646q7.009,1.162,10.465,1.612l7.229.944q3.774.494,5.465.685t4.652.448l5.822.508" fill="none" stroke="#171612" stroke-linecap="round" stroke-linejoin="round" stroke-width="12.8"/>
          <path id="STROKE_64f2670f-5ce5-4f53-beb0-a00654417ab6" d="M532.847,1162.042q3.758,5.035,4.488,6.058t5.381,7.814q4.651,6.792,7.11,10.472l6.2,9.267q3.734,5.585,5.482,8.171t3.672,5.4q1.924,2.814,3.625,5.352t5.822,8.345q4.12,5.807,7.59,10.471t5.218,7.026q1.749,2.362,3.619,4.806t5.317,6.8q3.447,4.357,8.665,10.676t8.273,9.766q3.055,3.448,5.37,6.005t6.392,6.773q4.077,4.215,9.334,9.063t9.772,8.5q4.515,3.652,7.926,6.122t5.142,3.625q1.731,1.154,6.022,3.786t7.556,4.461q3.265,1.828,8.076,4.162t7.809,3.552q3,1.217,6.045,2.277t4.188,1.43q1.139.369,6.411,1.581t10.351,2.059q5.078.847,6.59,1.007t4.512.543" fill="none" stroke="#171612" stroke-linecap="round" stroke-linejoin="round" stroke-width="12.8"/>
          <path id="STROKE_6b88ac28-271c-4be3-8823-f859d80b3328" d="M651.691,1211.542a11.619,11.619,0,0,0,.9.89q.568.513,1.913,1.817t2.616,2.6q1.271,1.3,2.848,3.036t1.8,2q.224.261,3.833,4.5t6.276,7.622q2.667,3.383,4.959,6.5t4.913,6.765q2.621,3.648,4.531,6.371t2.874,4.153q.965,1.431,2.321,3.547t3.668,5.929q2.311,3.811,5.04,8.734t4.161,7.66q1.431,2.738,2.442,4.725t1.277,2.5q.266.516,2,4.128t3.34,7.247q1.61,3.635,2.568,5.938t1.707,4.2q.749,1.9,1.159,2.931t1.7,4.623q1.288,3.594,1.991,5.654t1.488,4.362q.784,2.3,1.118,3.576" fill="none" stroke="#171612" stroke-linecap="round" stroke-linejoin="round" stroke-width="12.8"/>
        </g>
        <g id="新建图层_7">
          <path id="STROKE_ba200b90-af54-4fe1-a04f-d7d3bc6f49d7" d="M303.7,1073.08q.044,1.869,3.046,16.026a230.647,230.647,0,0,0,7.3,26.726q4.293,12.57,11.488,28.258t12.789,26.725q5.594,11.038,10.841,20.537t9.952,17.206q4.7,7.707,7.11,11.425t4.4,6.739q1.993,3.023,9.188,13.166t11.572,15.767q4.378,5.623,10.26,12.37t10.5,11.418q4.619,4.671,7.334,7.223t5.058,4.718q2.343,2.165,5.417,5.033T433.8,1300q.775.712,1.1,1.086t2.753,2.732q2.426,2.357,4.255,4.072t6.211,5.762" fill="none" stroke="#171612" stroke-linecap="round" stroke-linejoin="round" stroke-width="4.5"/>
          <path id="STROKE_f6cd3923-4e75-444e-b77f-4790dbd1f448" d="M382.616,1112.774q.417,2.782.69,4.249t.952,4.4q.679,2.93,3.616,11.408a201.6,201.6,0,0,0,8.771,20.611q5.834,12.134,8.058,16.357t4.629,8.7q2.4,4.471,5.5,9.871t6.743,11.439q3.649,6.038,7.057,11.33t9.475,14.394q6.067,9.1,9.186,13.695t6.514,9.354q3.4,4.761,7.4,10.2t9.031,11.45q5.025,6.011,7.2,8.377t5.719,5.816q3.539,3.45,5.459,5.09t2.993,2.5q1.074.863,2.255,1.7t4.1,2.931q2.917,2.09,6.18,4.328t6.288,4.139l3.464,1.636" transform="translate(-6.705 8.107)" fill="none" stroke="#171612" stroke-linecap="round" stroke-linejoin="round" stroke-width="4.5"/>
          <path id="STROKE_f368560d-aae9-4a74-a241-357d65ac38a9" d="M458.112,1147.947l.161.707q.2,1.339,7.392,21.121t12.8,31.791q5.611,12.007,8.665,17.857t8.56,15.744q5.505,9.9,11.3,19.076t9.414,14.087q3.625,4.905,5.411,7.118t3.119,3.783q1.332,1.572,2.861,3.342t3.673,4.122q2.144,2.353,5.5,5.792t4.722,4.783q1.36,1.344,6.024,6.3t7.077,7.506q2.414,2.551,3.331,3.51t2.185,2.178" fill="none" stroke="#171612" stroke-linecap="round" stroke-linejoin="round" stroke-width="4.5"/>
        </g>
        <g id="新建图层_9">
          <path id="STROKE_a53e2fbd-9c65-42be-9a2c-b1929950b95a" d="M473.285,1044.975q.563,1.1.957,1.945t1.291,2.4q.9,1.556,2.367,3.6a37.288,37.288,0,0,0,2.911,3.593,34.374,34.374,0,0,0,2.7,2.639,29.506,29.506,0,0,0,3.051,2.263,28.4,28.4,0,0,0,4.657,2.365,35.62,35.62,0,0,0,8.63,1.923,63.179,63.179,0,0,0,14.026-.1q8.263-.832,12.666-1.55" fill="none" stroke="#171612" stroke-linecap="round" stroke-linejoin="round" stroke-width="10.7"/>
        </g>
      </g>
    </g>
  </g>
</svg>
